<?xml version="1.0" encoding="utf-8"?>
<!-- Generator: Adobe Illustrator 17.1.0, SVG Export Plug-In . SVG Version: 6.00 Build 0)  -->
<!DOCTYPE svg PUBLIC "-//W3C//DTD SVG 1.1//EN" "http://www.w3.org/Graphics/SVG/1.1/DTD/svg11.dtd">
<svg version="1.1" id="Layer_1" xmlns="http://www.w3.org/2000/svg" xmlns:xlink="http://www.w3.org/1999/xlink" x="0px" y="0px"
	 viewBox="0 0 600 600" enable-background="new 0 0 600 600" xml:space="preserve">
<path fill="#4D5767" d="M77,0v597.3H523V0H77z M125.4,216.2l-22.9-22.6l13.6-13.7l22.9,22.6L125.4,216.2z M152.5,188.7l-22.9-22.6
	l13.6-13.7l22.9,22.6L152.5,188.7z M179.7,161.3l-22.9-22.6l13.6-13.7l22.9,22.6L179.7,161.3z M206.9,133.9L184,111.2l13.6-13.7
	l22.9,22.6L206.9,133.9z M234,106.4l-22.9-22.6l13.6-13.7l22.9,22.6L234,106.4z M261.2,79l-22.9-22.6l13.6-13.7l22.9,22.6L261.2,79z
	 M288.3,51.6L265.5,29l13.6-13.7l22.9,22.6L288.3,51.6z"/>
</svg>
