<?xml version="1.0" encoding="utf-8"?>
<!-- Generator: Adobe Illustrator 17.1.0, SVG Export Plug-In . SVG Version: 6.00 Build 0)  -->
<!DOCTYPE svg PUBLIC "-//W3C//DTD SVG 1.1//EN" "http://www.w3.org/Graphics/SVG/1.1/DTD/svg11.dtd">
<svg version="1.1" id="Layer_1" xmlns="http://www.w3.org/2000/svg" xmlns:xlink="http://www.w3.org/1999/xlink" x="0px" y="0px"
	 viewBox="0 0 600 600" enable-background="new 0 0 600 600" xml:space="preserve">
<g>
	<rect x="148.2" y="133.8" fill="#4D5767" width="137" height="160.4"/>
	<rect x="148.2" y="330.8" fill="#4D5767" width="199" height="137"/>
	<rect x="320" y="133.8" fill="#4D5767" width="137" height="118.2"/>
	<rect x="388.5" y="278.4" fill="#4D5767" width="68.5" height="190.1"/>
	<polygon fill="#4D5767" points="219,85 219,56.7 104.2,56.7 104.2,17.4 75.9,17.4 75.9,56.7 36.6,56.7 36.6,85 75.9,85 75.9,199.8 
		104.2,199.8 104.2,85 	"/>
	<polygon fill="#4D5767" points="569.6,515.7 530.3,515.7 530.3,400.9 502,400.9 502,515.7 387.2,515.7 387.2,544 502,544 
		502,583.4 530.3,583.4 530.3,544 569.6,544 	"/>
</g>
</svg>
