<?xml version="1.0" encoding="utf-8"?>
<!-- Generator: Adobe Illustrator 17.1.0, SVG Export Plug-In . SVG Version: 6.00 Build 0)  -->
<!DOCTYPE svg PUBLIC "-//W3C//DTD SVG 1.1//EN" "http://www.w3.org/Graphics/SVG/1.1/DTD/svg11.dtd">
<svg version="1.1" id="Layer_1" xmlns="http://www.w3.org/2000/svg" xmlns:xlink="http://www.w3.org/1999/xlink" x="0px" y="0px"
	 viewBox="0 0 600 600" enable-background="new 0 0 600 600" xml:space="preserve">
<g>
	<path fill="#4D5767" d="M547.3,206.4V49.7c0-6.8-5.5-12.3-12.3-12.3H65c-6.8,0-12.3,5.5-12.3,12.3v156.7c0,6.8,5.5,12.3,12.3,12.3
		h208l25.9,64.3l32.7-64.3H535C541.8,218.7,547.3,213.2,547.3,206.4z"/>
	<path fill="#4D5767" d="M237.5,276.1H13.9c-6.8,0-12.3,5.5-12.3,12.3v156.7c0,6.8,5.5,12.3,12.3,12.3h84.4l-4.6,64.3l63.2-64.3
		h80.6c6.8,0,12.3-5.5,12.3-12.3V288.4C249.8,281.6,244.3,276.1,237.5,276.1z"/>
	<path fill="#4D5767" d="M586.1,276.1H362.5c-6.8,0-12.3,5.5-12.3,12.3v156.7c0,6.8,5.5,12.3,12.3,12.3h80.6l63.2,64.3l-4.6-64.3
		h84.4c6.8,0,12.3-5.5,12.3-12.3V288.4C598.4,281.6,592.9,276.1,586.1,276.1z"/>
</g>
</svg>
