<?xml version="1.0" encoding="utf-8"?>
<!-- Generator: Adobe Illustrator 17.1.0, SVG Export Plug-In . SVG Version: 6.00 Build 0)  -->
<!DOCTYPE svg PUBLIC "-//W3C//DTD SVG 1.1//EN" "http://www.w3.org/Graphics/SVG/1.1/DTD/svg11.dtd">
<svg version="1.1" id="Layer_1" xmlns="http://www.w3.org/2000/svg" xmlns:xlink="http://www.w3.org/1999/xlink" x="0px" y="0px"
	 viewBox="0 0 600 600" enable-background="new 0 0 600 600" xml:space="preserve">
<g>
	<path fill="#4D5767" d="M-0.1,38v525h601V38H-0.1z M567.3,529.4H33.5V71.6h533.8V529.4z"/>
	<rect x="494.7" y="344.2" fill="#4D5767" width="24" height="14.4"/>
	<rect x="494.7" y="315.4" fill="#4D5767" width="24" height="14.4"/>
	<rect x="494.7" y="286.6" fill="#4D5767" width="24" height="14.4"/>
	<rect x="494.7" y="373.1" fill="#4D5767" width="24" height="14.4"/>
	<rect x="494.7" y="430.7" fill="#4D5767" width="24" height="14.4"/>
	<rect x="494.7" y="401.9" fill="#4D5767" width="24" height="14.4"/>
	<rect x="350.6" y="430.7" fill="#4D5767" width="24" height="14.4"/>
	<rect x="350.6" y="401.9" fill="#4D5767" width="24" height="14.4"/>
	<rect x="350.6" y="373.1" fill="#4D5767" width="24" height="14.4"/>
	<rect x="350.6" y="344.2" fill="#4D5767" width="24" height="14.4"/>
	<rect x="350.6" y="286.6" fill="#4D5767" width="24" height="14.4"/>
	<rect x="350.6" y="315.4" fill="#4D5767" width="24" height="14.4"/>
	<rect x="411.9" y="460.9" fill="#4D5767" width="14.4" height="24"/>
	<rect x="440.7" y="460.9" fill="#4D5767" width="14.4" height="24"/>
	<rect x="469.5" y="460.9" fill="#4D5767" width="14.4" height="24"/>
	<rect x="383" y="460.9" fill="#4D5767" width="14.4" height="24"/>
	<rect x="351.2" y="455.9" fill="#4D5767" width="28.8" height="28.8"/>
	<rect x="489.8" y="455.9" fill="#4D5767" width="28.8" height="28.8"/>
	<rect x="440.7" y="251.4" fill="#4D5767" width="14.4" height="24"/>
	<rect x="411.9" y="251.4" fill="#4D5767" width="14.4" height="24"/>
	<rect x="469.5" y="251.4" fill="#4D5767" width="14.4" height="24"/>
	<rect x="383" y="251.4" fill="#4D5767" width="14.4" height="24"/>
	<rect x="351.2" y="251.2" fill="#4D5767" width="28.8" height="28.8"/>
	<rect x="489.8" y="251.2" fill="#4D5767" width="28.8" height="28.8"/>
	<rect x="268.4" y="122.1" fill="#4D5767" width="14.4" height="24"/>
	<rect x="182" y="122.1" fill="#4D5767" width="14.4" height="24"/>
	<rect x="153.2" y="122.1" fill="#4D5767" width="14.4" height="24"/>
	<rect x="95.6" y="122.1" fill="#4D5767" width="14.4" height="24"/>
	<rect x="124.4" y="122.1" fill="#4D5767" width="14.4" height="24"/>
	<rect x="210.8" y="122.1" fill="#4D5767" width="14.4" height="24"/>
	<rect x="239.6" y="122.1" fill="#4D5767" width="14.4" height="24"/>
	<rect x="289.7" y="441.4" fill="#4D5767" width="24" height="10.8"/>
	<rect x="289.7" y="383.8" fill="#4D5767" width="24" height="14.4"/>
	<rect x="289.7" y="355" fill="#4D5767" width="24" height="14.4"/>
	<rect x="289.7" y="412.6" fill="#4D5767" width="24" height="14.4"/>
	<rect x="289.7" y="211" fill="#4D5767" width="24" height="14.4"/>
	<rect x="289.7" y="239.8" fill="#4D5767" width="24" height="14.4"/>
	<rect x="289.7" y="182.2" fill="#4D5767" width="24" height="14.4"/>
	<rect x="289.7" y="326.2" fill="#4D5767" width="24" height="14.4"/>
	<rect x="289.7" y="153.4" fill="#4D5767" width="24" height="14.4"/>
	<rect x="289.7" y="297.4" fill="#4D5767" width="24" height="14.4"/>
	<rect x="289.7" y="268.6" fill="#4D5767" width="24" height="14.4"/>
	<polygon fill="#4D5767" points="314,122.2 297.5,122.2 297.5,122.1 297.2,122.1 297.2,122.2 285.2,122.2 285.2,151 314,151 	"/>
	<rect x="125" y="460.9" fill="#4D5767" width="14.4" height="24"/>
	<rect x="182.6" y="460.9" fill="#4D5767" width="14.4" height="24"/>
	<rect x="153.8" y="460.9" fill="#4D5767" width="14.4" height="24"/>
	<rect x="96.2" y="460.9" fill="#4D5767" width="14.4" height="24"/>
	<rect x="269.1" y="460.9" fill="#4D5767" width="14.4" height="24"/>
	<rect x="211.4" y="460.9" fill="#4D5767" width="14.4" height="24"/>
	<rect x="240.2" y="460.9" fill="#4D5767" width="14.4" height="24"/>
	<rect x="65.4" y="295.1" fill="#4D5767" width="24" height="14.4"/>
	<rect x="65.4" y="266.3" fill="#4D5767" width="24" height="14.4"/>
	<rect x="65.4" y="237.5" fill="#4D5767" width="24" height="14.4"/>
	<rect x="65.4" y="179.9" fill="#4D5767" width="24" height="14.4"/>
	<rect x="65.4" y="154.7" fill="#4D5767" width="24" height="10.8"/>
	<rect x="65.4" y="208.7" fill="#4D5767" width="24" height="14.4"/>
	<rect x="65.4" y="323.9" fill="#4D5767" width="24" height="14.4"/>
	<rect x="65.4" y="410.3" fill="#4D5767" width="24" height="14.4"/>
	<rect x="65.4" y="439.1" fill="#4D5767" width="24" height="14.4"/>
	<rect x="65.4" y="352.7" fill="#4D5767" width="24" height="14.4"/>
	<rect x="65.4" y="381.5" fill="#4D5767" width="24" height="14.4"/>
	<rect x="65" y="455.9" fill="#4D5767" width="28.8" height="28.8"/>
	<rect x="285.2" y="455.9" fill="#4D5767" width="28.8" height="28.8"/>
	<rect x="65" y="122.2" fill="#4D5767" width="28.8" height="28.8"/>
</g>
</svg>
