<?xml version="1.0" encoding="utf-8"?>
<!-- Generator: Adobe Illustrator 17.1.0, SVG Export Plug-In . SVG Version: 6.00 Build 0)  -->
<!DOCTYPE svg PUBLIC "-//W3C//DTD SVG 1.1//EN" "http://www.w3.org/Graphics/SVG/1.1/DTD/svg11.dtd">
<svg version="1.1" id="Layer_1" xmlns="http://www.w3.org/2000/svg" xmlns:xlink="http://www.w3.org/1999/xlink" x="0px" y="0px"
	 viewBox="0 0 600 600" enable-background="new 0 0 600 600" xml:space="preserve">
<path fill="#4D5767" d="M399.5,128.5V55.8H202.5v72.6H0.5V546h600.9V128.5H399.5z M223.6,77h154.8v40.9H223.6V77z M98.9,535.6H77.8
	v-12.7h21.2V535.6z M98.9,510.2H77.8v-12.7h21.2V510.2z M98.9,484.8H77.8v-12.7h21.2V484.8z M98.9,462.8H77.8c0-7.1,3.2-13.9,9-19
	l14,15.8C100.1,460.2,98.9,461.4,98.9,462.8z M117.7,456.4h-7.3c-1.3-0.1-2.3,0.1-3.4,0.3l-4-20.8c2.4-0.5,4.9-0.7,7.4-0.7
	c0,0,0,0,0,0h7.2V456.4z M141.3,456.7c-1-0.2-2.1-0.3-3.1-0.3h-7.7v-21.2h7.7c2.3,0,4.6,0.2,6.8,0.6L141.3,456.7z M147.7,459.5
	l13.6-16.2c5.9,4.9,9.2,11.6,9.5,18.6l-21.1,0.7C149.7,461.3,148.5,460.1,147.7,459.5z M170.9,538.5h-21.2v-12.7h21.2V538.5z
	 M170.9,513.1h-21.2v-12.7h21.2V513.1z M170.9,487.7h-21.2V475h21.2V487.7z M452.3,535.6h-21.2v-12.7h21.2V535.6z M452.3,510.2
	h-21.2v-12.7h21.2V510.2z M452.3,484.8h-21.2v-12.7h21.2V484.8z M452.3,462.8h-21.2c0-7.1,3.2-13.9,9-19l14,15.8
	C453.4,460.2,452.3,461.4,452.3,462.8z M471.1,456.4h-7.3c-1.3-0.1-2.3,0.1-3.4,0.3l-4-20.8c2.4-0.5,4.9-0.7,7.4-0.7c0,0,0,0,0,0
	h7.2V456.4z M494.6,456.7c-1-0.2-2.1-0.3-3.1-0.3h-7.7v-21.2h7.7c2.3,0,4.6,0.2,6.8,0.6L494.6,456.7z M501.1,459.5l13.6-16.2
	c5.9,4.9,9.2,11.6,9.5,18.6l-21.1,0.7C503,461.3,501.8,460.1,501.1,459.5z M524.2,538.5h-21.2v-12.7h21.2V538.5z M524.2,513.1h-21.2
	v-12.7h21.2V513.1z M524.2,487.7h-21.2V475h21.2V487.7z"/>
</svg>
