<?xml version="1.0" encoding="utf-8"?>
<!-- Generator: Adobe Illustrator 17.1.0, SVG Export Plug-In . SVG Version: 6.00 Build 0)  -->
<!DOCTYPE svg PUBLIC "-//W3C//DTD SVG 1.1//EN" "http://www.w3.org/Graphics/SVG/1.1/DTD/svg11.dtd">
<svg version="1.1" id="Layer_1" xmlns="http://www.w3.org/2000/svg" xmlns:xlink="http://www.w3.org/1999/xlink" x="0px" y="0px"
	 viewBox="0 0 600 600" enable-background="new 0 0 600 600" xml:space="preserve">
<g>
	<rect x="1" y="29" fill="#4D5767" width="599" height="447.4"/>
	<path fill="#4D5767" d="M1,561.9h599v-68.8H1V561.9z M548.6,511.4h19.4v32.3h-19.4V511.4z M509.8,511.4h19.4v32.3h-19.4V511.4z
		 M471.1,511.4h19.4v32.3h-19.4V511.4z M432.4,511.4l19.4,0l0,32.3l-19.4,0L432.4,511.4z M393.7,511.4h19.4v32.3h-19.4V511.4z
		 M355,511.4h19.4v32.3H355V511.4z M316.3,511.4h19.4v32.3h-19.4V511.4z M277.6,511.4h19.4v32.3h-19.4V511.4z M238.8,511.4h19.4
		v32.3h-19.4V511.4z M200.1,511.4l19.4,0l0,32.3l-19.4,0L200.1,511.4z M161.4,511.4h19.4v32.3h-19.4V511.4z M122.7,511.4h19.4v32.3
		h-19.4V511.4z M84,511.4h19.4v32.3H84V511.4z M24,502.5l37.3,25l-37.3,25V502.5z"/>
</g>
</svg>
