<?xml version="1.0" encoding="utf-8"?>
<!-- Generator: Adobe Illustrator 17.1.0, SVG Export Plug-In . SVG Version: 6.00 Build 0)  -->
<!DOCTYPE svg PUBLIC "-//W3C//DTD SVG 1.1//EN" "http://www.w3.org/Graphics/SVG/1.1/DTD/svg11.dtd">
<svg version="1.1" id="Layer_1" xmlns="http://www.w3.org/2000/svg" xmlns:xlink="http://www.w3.org/1999/xlink" x="0px" y="0px"
	 viewBox="0 0 600 600" enable-background="new 0 0 600 600" xml:space="preserve">
<g>
	<path fill="#4D5767" d="M230.8,328.5c65.8-26,81.6-33.7,85.1-35.5c-0.7-0.4-1-0.5-1-0.5h1.9c0,0-0.2,0.1-1,0.5
		c3.5,1.9,19.3,9.5,85.1,35.5c56.4,22.3,57.6,60.5,57.6,79.9H600V45.8H0v362.6h173.2C173.2,389,174.4,350.8,230.8,328.5z M316,76.5
		c50.4,0,91.3,47.6,91.3,106.4c0,58.8-40.9,106.4-91.3,106.4c-50.4,0-91.3-47.6-91.3-106.4C224.6,124.1,265.5,76.5,316,76.5z"/>
	<path fill="#4D5767" d="M0,425.2v119.2h46.3c0-5.9,0.4-17.4,17.4-24.2c19.9-7.9,24.7-10.2,25.8-10.8c-0.2-0.1-0.3-0.2-0.3-0.2h0.6
		c0,0-0.1,0-0.3,0.2c1.1,0.6,5.8,2.9,25.8,10.8c17.1,6.8,17.4,18.3,17.4,24.2h124.8c0-5.9,0.4-17.4,17.4-24.2
		c19.9-7.9,24.7-10.2,25.8-10.8c-0.2-0.1-0.3-0.2-0.3-0.2h0.6c0,0-0.1,0-0.3,0.2c1.1,0.6,5.8,2.9,25.8,10.8
		c17.1,6.8,17.4,18.3,17.4,24.2h124.8c0-5.9,0.4-17.4,17.4-24.2c20-7.9,24.7-10.2,25.8-10.8c-0.2-0.1-0.3-0.2-0.3-0.2h0.6
		c0,0-0.1,0-0.3,0.2c1.1,0.6,5.8,2.9,25.8,10.8c17.1,6.8,17.4,18.3,17.4,24.2H600V425.2H0z M89.5,508.3c-15.3,0-27.6-14.4-27.6-32.2
		c0-17.8,12.4-32.2,27.6-32.2c15.3,0,27.6,14.4,27.6,32.2C117.1,493.9,104.7,508.3,89.5,508.3z M300.7,508.3
		c-15.3,0-27.6-14.4-27.6-32.2c0-17.8,12.4-32.2,27.6-32.2c15.3,0,27.6,14.4,27.6,32.2C328.4,493.9,316,508.3,300.7,508.3z
		 M511.9,508.3c-15.3,0-27.6-14.4-27.6-32.2c0-17.8,12.4-32.2,27.6-32.2c15.3,0,27.6,14.4,27.6,32.2
		C539.6,493.9,527.2,508.3,511.9,508.3z"/>
</g>
</svg>
