<?xml version="1.0" encoding="utf-8"?>
<!-- Generator: Adobe Illustrator 17.1.0, SVG Export Plug-In . SVG Version: 6.00 Build 0)  -->
<!DOCTYPE svg PUBLIC "-//W3C//DTD SVG 1.1//EN" "http://www.w3.org/Graphics/SVG/1.1/DTD/svg11.dtd">
<svg version="1.1" id="Layer_1" xmlns="http://www.w3.org/2000/svg" xmlns:xlink="http://www.w3.org/1999/xlink" x="0px" y="0px"
	 viewBox="0 0 100 100" enable-background="new 0 0 100 100" xml:space="preserve">
<g>
	<path fill="#4E5868" d="M71.1,41.7L71,40.2c-0.4-4.3-7.3-6.4-20.7-6.4c-13.4,0-20.3,2.1-20.7,6.4l-0.2,1.5
		c-0.2,2.3-1.2,4.1-2.9,5.5L15.1,78.9c0,5.8,4.7,10.5,10.5,10.5h49.3c5.8,0,10.5-4.7,10.5-10.5L74.1,47.2
		C72.3,45.8,71.3,44,71.1,41.7z"/>
	<path fill="#4E5868" d="M90.4,24.7c-11.6-4.7-25.1-7.1-40.7-7.1c-7.7,0-15,0.6-21.8,1.8c-6.8,1.2-13.1,3-18.9,5.4
		c-5,7.4-7.5,13.5-7.5,18.3c0,1.6,0.7,2.8,2,3.6C4.9,47.6,6.9,48,9.5,48c6.1,0,10.4-1.1,13.2-3.3c1.9-1.5,3.1-3.6,3.3-6.2l0.2-1.8
		c0.4-4.9,8.3-7.3,23.5-7.3c15.2,0,23.1,2.4,23.6,7.3l0.2,1.8c0.2,2.6,1.4,4.7,3.3,6.2C79.6,46.9,84,48,90,48c5.3,0,7.9-1.6,7.9-4.9
		C98,38.2,95.4,32.1,90.4,24.7z"/>
</g>
</svg>
