<?xml version="1.0" encoding="utf-8"?>
<!-- Generator: Adobe Illustrator 17.1.0, SVG Export Plug-In . SVG Version: 6.00 Build 0)  -->
<!DOCTYPE svg PUBLIC "-//W3C//DTD SVG 1.1//EN" "http://www.w3.org/Graphics/SVG/1.1/DTD/svg11.dtd">
<svg version="1.1" id="Layer_1" xmlns="http://www.w3.org/2000/svg" xmlns:xlink="http://www.w3.org/1999/xlink" x="0px" y="0px"
	 viewBox="0 0 571.6 114" enable-background="new 0 0 571.6 114" xml:space="preserve">
<g>
	<polygon fill="#808080" points="102.7,61.4 113.9,61.4 108.4,43.7 	"/>
	<path fill="#808080" d="M544,21.5H19c-2.2,0-4,1.8-4,4v60.7c0,2.2,1.8,4,4,4h525c2.2,0,4-1.8,4-4V25.5
		C548,23.3,546.2,21.5,544,21.5z M77.8,79.8h-11V51.1L56.4,71.9h-5.9L40.1,51.1v28.6H29V31.9h12l12.4,25l12.5-25h11.9V79.8z
		 M119.5,79.8l-3.7-10.7h-14.9l-3.6,10.7H85.6L104,31.9h9l18.3,47.8H119.5z M172.1,72.5c-1,1.9-2.3,3.4-4,4.5
		c-1.7,1.1-3.6,2-5.8,2.5c-2.2,0.5-4.4,0.8-6.7,0.8c-1.8,0-3.5-0.1-5.4-0.4c-1.8-0.3-3.6-0.7-5.4-1.2c-1.8-0.5-3.5-1.1-5.1-1.9
		c-1.7-0.7-3.2-1.5-4.6-2.5l4.8-9.6c0.2,0.2,0.8,0.7,1.8,1.3c1,0.6,2.2,1.3,3.6,1.9c1.4,0.6,3.1,1.2,4.8,1.7
		c1.8,0.5,3.6,0.7,5.5,0.7c3.9,0,5.9-1.2,5.9-3.6c0-0.9-0.3-1.6-0.9-2.2c-0.6-0.6-1.4-1.1-2.4-1.6c-1-0.5-2.2-0.9-3.6-1.3
		c-1.4-0.4-2.9-0.9-4.6-1.3c-2.2-0.7-4.1-1.4-5.7-2.2c-1.6-0.8-3-1.7-4-2.7c-1.1-1-1.9-2.2-2.4-3.6c-0.5-1.3-0.8-2.9-0.8-4.7
		c0-2.5,0.5-4.7,1.4-6.7c0.9-1.9,2.2-3.6,3.8-4.9c1.6-1.3,3.5-2.3,5.6-3c2.1-0.7,4.4-1,6.8-1c1.7,0,3.4,0.2,5,0.5
		c1.6,0.3,3.2,0.7,4.6,1.2c1.5,0.5,2.8,1.1,4.1,1.7c1.3,0.6,2.5,1.3,3.5,1.9l-4.8,9.2c-0.2-0.2-0.7-0.5-1.5-1c-0.8-0.5-1.8-1-3-1.5
		c-1.2-0.5-2.5-1-4-1.4c-1.4-0.4-2.9-0.6-4.3-0.6c-1.9,0-3.3,0.3-4.3,1c-1,0.7-1.5,1.7-1.5,3c0,0.8,0.2,1.5,0.7,2
		c0.4,0.5,1.1,1,1.9,1.4c0.8,0.4,1.9,0.8,3.1,1.2c1.2,0.4,2.7,0.8,4.3,1.2c2.3,0.6,4.4,1.3,6.2,2.1c1.8,0.7,3.4,1.7,4.7,2.8
		c1.3,1.1,2.3,2.4,3,4c0.7,1.6,1,3.5,1,5.7C173.6,68.4,173.1,70.7,172.1,72.5z M219.7,41.6h-14.5v38.1h-11V41.6h-14.6v-9.7h40.2
		V41.6z M262.1,79.8h-33.6V31.9h33v9.7h-22v9.3h18.9v9h-18.9v10.2h22.6V79.8z M300.3,79.8l-9.6-15.4h-7.2v15.4h-11V31.9h21.5
		c2.2,0,4.3,0.5,6.2,1.4c1.9,0.9,3.6,2.2,5,3.7c1.4,1.5,2.5,3.3,3.3,5.2c0.8,1.9,1.2,3.9,1.2,5.9c0,1.5-0.2,2.9-0.5,4.3
		c-0.4,1.4-0.9,2.7-1.5,3.9c-0.7,1.2-1.5,2.3-2.5,3.3c-1,1-2.1,1.8-3.3,2.5l11,17.8H300.3z M354.1,73.7c-1.4,1.4-2.9,2.6-4.6,3.5
		c-1.7,0.9-3.5,1.6-5.4,2.1c-1.9,0.5-3.8,0.7-5.6,0.7c-3.3,0-6.3-0.7-9-2.2c-2.7-1.4-5.1-3.3-7-5.6c-2-2.3-3.5-4.9-4.6-7.9
		c-1.1-2.9-1.6-5.9-1.6-9c0-2.9,0.5-5.7,1.5-8.6c1-2.8,2.5-5.4,4.4-7.6c1.9-2.2,4.3-4.1,7.1-5.5c2.8-1.4,6-2.1,9.6-2.1
		c4.3,0,7.9,1,10.9,2.9c3,2,5.2,4.5,6.7,7.5l-2.8,1.6c-0.8-1.7-1.8-3.1-2.9-4.2c-1.1-1.1-2.4-2-3.7-2.7c-1.3-0.7-2.7-1.2-4.1-1.5
		c-1.4-0.3-2.9-0.5-4.2-0.5c-3.1,0-5.7,0.6-8.1,1.9c-2.3,1.2-4.3,2.8-5.9,4.8c-1.6,2-2.8,4.2-3.7,6.7c-0.8,2.5-1.2,5-1.2,7.5
		c0,2.8,0.5,5.5,1.5,8.1c1,2.6,2.3,4.8,4,6.8c1.7,2,3.7,3.5,6.1,4.7c2.3,1.2,4.8,1.8,7.5,1.8c1.4,0,2.9-0.2,4.4-0.5
		c1.5-0.4,3-0.9,4.4-1.7c1.4-0.8,2.7-1.7,3.9-2.9c1.2-1.2,2.2-2.6,3-4.2l2.9,1.4C356.5,70.7,355.4,72.3,354.1,73.7z M401.4,79.6h-32
		V31.8h3.4v44.7h28.6V79.6z M447.2,79.6l-6.7-15.8h-22.8l-6.7,15.8h-3.6l20.3-47.8h2.8l20.3,47.8H447.2z M492,72.9
		c-0.8,1.6-2,2.9-3.5,3.9c-1.5,1.1-3.3,1.9-5.4,2.4c-2.1,0.5-4.4,0.8-7,0.8c-7.5,0-13.8-2.4-18.9-7.1l1.8-2.8c2,2.1,4.5,3.8,7.4,5
		c2.9,1.2,6.2,1.9,9.8,1.9c4.2,0,7.4-0.8,9.8-2.3c2.4-1.5,3.5-3.8,3.5-6.9c0-1.6-0.3-2.9-0.9-4c-0.6-1.1-1.5-2.1-2.8-2.9
		c-1.3-0.8-2.8-1.5-4.7-2.1c-1.9-0.6-4.1-1.1-6.6-1.7c-2.6-0.5-4.8-1.1-6.8-1.7c-2-0.6-3.6-1.4-4.9-2.3c-1.3-0.9-2.4-2-3-3.3
		c-0.7-1.3-1-2.9-1-4.9c0-2.2,0.4-4.1,1.2-5.7c0.8-1.7,2-3.1,3.5-4.2c1.5-1.1,3.3-2,5.3-2.6c2.1-0.6,4.4-0.9,6.9-0.9
		c3.1,0,5.9,0.5,8.3,1.4c2.4,0.9,4.6,2.3,6.6,4.2l-1.8,2.7c-3.1-3.5-7.5-5.2-13.1-5.2c-4.7,0-8.1,0.9-10.2,2.7
		c-2.1,1.8-3.2,4.2-3.2,7.2c0,1.5,0.3,2.8,0.8,3.8c0.5,1,1.4,1.9,2.5,2.6c1.1,0.7,2.6,1.3,4.4,1.8c1.8,0.5,3.9,1,6.3,1.5
		c2.6,0.5,4.9,1.1,7,1.8c2.1,0.7,3.8,1.5,5.3,2.5c1.5,1,2.6,2.2,3.4,3.6c0.8,1.4,1.2,3.2,1.2,5.3C493.2,69.5,492.8,71.3,492,72.9z
		 M536.5,72.9c-0.8,1.6-2,2.9-3.5,3.9c-1.5,1.1-3.3,1.9-5.4,2.4c-2.1,0.5-4.4,0.8-7,0.8c-7.5,0-13.8-2.4-18.9-7.1l1.8-2.8
		c2,2.1,4.5,3.8,7.4,5c2.9,1.2,6.2,1.9,9.8,1.9c4.2,0,7.4-0.8,9.8-2.3c2.4-1.5,3.5-3.8,3.5-6.9c0-1.6-0.3-2.9-0.9-4
		c-0.6-1.1-1.5-2.1-2.8-2.9c-1.3-0.8-2.8-1.5-4.7-2.1c-1.9-0.6-4.1-1.1-6.6-1.7c-2.6-0.5-4.8-1.1-6.8-1.7c-2-0.6-3.6-1.4-4.9-2.3
		c-1.3-0.9-2.4-2-3-3.3c-0.7-1.3-1-2.9-1-4.9c0-2.2,0.4-4.1,1.2-5.7c0.8-1.7,2-3.1,3.5-4.2c1.5-1.1,3.3-2,5.3-2.6
		c2.1-0.6,4.4-0.9,6.9-0.9c3.1,0,5.9,0.5,8.3,1.4c2.4,0.9,4.6,2.3,6.6,4.2l-1.8,2.7c-3.1-3.5-7.5-5.2-13.1-5.2
		c-4.7,0-8.1,0.9-10.2,2.7c-2.1,1.8-3.2,4.2-3.2,7.2c0,1.5,0.3,2.8,0.8,3.8c0.5,1,1.4,1.9,2.5,2.6s2.6,1.3,4.4,1.8
		c1.8,0.5,3.9,1,6.3,1.5c2.6,0.5,4.9,1.1,7,1.8c2.1,0.7,3.8,1.5,5.3,2.5c1.5,1,2.6,2.2,3.4,3.6c0.8,1.4,1.2,3.2,1.2,5.3
		C537.7,69.5,537.3,71.3,536.5,72.9z"/>
	<path fill="#808080" d="M293.2,41.6h-9.8v13.1h10.1c1.3,0,2.4-0.6,3.4-1.9c0.9-1.2,1.4-2.8,1.4-4.7c0-2-0.5-3.5-1.6-4.7
		C295.6,42.2,294.4,41.6,293.2,41.6z"/>
	<polygon fill="#808080" points="418.5,61 439.6,61 429.2,36 	"/>
</g>
</svg>
