<?xml version="1.0" encoding="utf-8"?>
<!-- Generator: Adobe Illustrator 15.0.0, SVG Export Plug-In . SVG Version: 6.00 Build 0)  -->
<!DOCTYPE svg PUBLIC "-//W3C//DTD SVG 1.1 Tiny//EN" "http://www.w3.org/Graphics/SVG/1.1/DTD/svg11-tiny.dtd">
<svg version="1.1" baseProfile="tiny" id="Шар_1"
	 xmlns="http://www.w3.org/2000/svg" xmlns:xlink="http://www.w3.org/1999/xlink" x="0px" y="0px" width="448px" height="58px"
	 viewBox="0 0 448 58" xml:space="preserve">
<g>
	<polygon fill="#796F6D" points="73.686,33.546 83.135,33.546 78.496,18.608 	"/>
	<path fill="#796F6D" d="M444.523,0H3.361C1.505,0,0,1.505,0,3.361V54.34c0,1.855,1.505,3.361,3.361,3.361h441.163
		c1.855,0,3.361-1.506,3.361-3.361V3.361C447.886,1.505,446.38,0,444.523,0z M52.748,48.939h-9.28v-24.05l-8.715,17.486h-4.979
		l-8.716-17.486v24.05h-9.28V8.762h10.073l10.412,20.994L42.731,8.762h10.016L52.748,48.939L52.748,48.939z M87.833,48.939
		l-3.113-8.998H72.213l-3.056,8.998h-9.846L74.76,8.762h7.526l15.393,40.177H87.833L87.833,48.939z M132,42.855
		c-0.849,1.565-1.971,2.83-3.367,3.791c-1.396,0.963-3.009,1.66-4.838,2.095c-1.83,0.434-3.708,0.651-5.631,0.651
		c-1.471,0-2.971-0.113-4.499-0.341c-1.528-0.227-3.028-0.556-4.5-0.989c-1.471-0.435-2.905-0.953-4.301-1.557
		s-2.679-1.302-3.847-2.094l4.073-8.094c0.189,0.189,0.698,0.549,1.528,1.076c0.83,0.528,1.848,1.058,3.057,1.584
		c1.206,0.528,2.564,1,4.075,1.414c1.507,0.416,3.035,0.623,4.583,0.623c3.282,0,4.922-1,4.922-3c0-0.754-0.245-1.377-0.735-1.867
		c-0.491-0.489-1.17-0.933-2.038-1.33c-0.868-0.396-1.886-0.764-3.055-1.104c-1.17-0.339-2.453-0.717-3.848-1.132
		c-1.849-0.565-3.453-1.179-4.811-1.838c-1.358-0.66-2.49-1.424-3.395-2.292c-0.905-0.868-1.576-1.868-2.009-3
		c-0.434-1.131-0.651-2.451-0.651-3.96c0-2.112,0.397-3.98,1.188-5.602c0.793-1.622,1.868-2.99,3.226-4.103
		c1.358-1.112,2.933-1.952,4.725-2.519c1.792-0.565,3.687-0.849,5.687-0.849c1.434,0,2.83,0.134,4.188,0.397
		c1.358,0.264,2.649,0.604,3.876,1.019c1.226,0.415,2.386,0.887,3.481,1.415c1.093,0.528,2.074,1.056,2.942,1.584l-4.018,7.696
		c-0.15-0.151-0.565-0.434-1.244-0.849c-0.679-0.415-1.529-0.849-2.547-1.302c-1.019-0.453-2.131-0.849-3.338-1.188
		c-1.208-0.34-2.416-0.509-3.622-0.509c-1.584,0-2.802,0.282-3.65,0.848c-0.848,0.566-1.273,1.397-1.273,2.49
		c0,0.678,0.188,1.245,0.565,1.697c0.376,0.453,0.914,0.859,1.612,1.217c0.698,0.36,1.565,0.689,2.604,0.991
		c1.037,0.302,2.235,0.642,3.593,1.019c1.923,0.528,3.658,1.104,5.206,1.726c1.546,0.623,2.867,1.396,3.961,2.32
		c1.094,0.925,1.933,2.048,2.518,3.368c0.584,1.32,0.877,2.904,0.877,4.754C133.273,39.377,132.849,41.291,132,42.855z
		 M172.037,16.91h-12.223v32.029h-9.281V16.91h-12.279V8.762h33.783V16.91L172.037,16.91z M207.688,48.939H179.45V8.762h27.729
		v8.148H188.73v7.81h15.845v7.526H188.73v8.545h18.958V48.939L207.688,48.939z M239.717,48.939l-8.092-12.959h-6.057v12.959h-9.279
		V8.762h18.107c1.887,0,3.631,0.396,5.234,1.188s2.99,1.83,4.16,3.112c1.168,1.283,2.083,2.736,2.744,4.357
		c0.658,1.622,0.99,3.264,0.99,4.923c0,1.245-0.151,2.443-0.453,3.594c-0.303,1.15-0.735,2.235-1.301,3.253
		c-0.566,1.019-1.256,1.934-2.067,2.747c-0.812,0.812-1.726,1.498-2.743,2.063l9.225,14.939h-10.469V48.939z M284.936,43.848
		c-1.149,1.168-2.442,2.148-3.877,2.941c-1.433,0.792-2.951,1.387-4.554,1.781c-1.604,0.396-3.179,0.596-4.726,0.596
		c-2.756,0-5.272-0.604-7.555-1.813c-2.283-1.207-4.254-2.783-5.914-4.725c-1.66-1.943-2.953-4.15-3.877-6.622
		c-0.925-2.471-1.387-4.987-1.387-7.554c0-2.414,0.426-4.819,1.273-7.216c0.849-2.395,2.084-4.536,3.707-6.423
		c1.619-1.885,3.611-3.423,5.97-4.612c2.356-1.188,5.045-1.783,8.063-1.783c3.582,0,6.641,0.821,9.168,2.462
		c2.526,1.641,4.395,3.744,5.603,6.31l-2.377,1.358c-0.681-1.395-1.5-2.565-2.461-3.508c-0.964-0.943-2-1.707-3.112-2.292
		c-1.113-0.584-2.273-1.008-3.48-1.273c-1.207-0.264-2.396-0.396-3.565-0.396c-2.565,0-4.829,0.519-6.79,1.556
		c-1.962,1.038-3.621,2.386-4.979,4.047c-1.358,1.66-2.388,3.536-3.084,5.629c-0.699,2.095-1.047,4.197-1.047,6.31
		c0,2.377,0.414,4.64,1.243,6.791c0.83,2.149,1.96,4.046,3.396,5.688c1.434,1.641,3.133,2.951,5.094,3.932
		c1.962,0.982,4.075,1.473,6.338,1.473c1.207,0,2.441-0.15,3.706-0.454c1.265-0.3,2.49-0.772,3.681-1.415
		c1.188-0.64,2.291-1.46,3.311-2.461c1.019-0.999,1.867-2.178,2.546-3.535l2.435,1.188
		C287.002,41.338,286.086,42.677,284.936,43.848z M324.69,48.825h-26.88V8.647h2.886v37.574h23.995L324.69,48.825L324.69,48.825z
		 M363.227,48.825l-5.604-13.242h-19.184l-5.603,13.242h-3.057l17.091-40.178h2.377l17.089,40.178H363.227z M400.829,43.166
		c-0.698,1.32-1.68,2.425-2.942,3.311c-1.264,0.889-2.771,1.558-4.524,2.01c-1.757,0.453-3.708,0.681-5.858,0.681
		c-6.263,0-11.563-1.999-15.902-6l1.529-2.319c1.698,1.772,3.771,3.18,6.225,4.215c2.451,1.039,5.205,1.558,8.264,1.558
		c3.507,0,6.251-0.642,8.231-1.925c1.98-1.281,2.972-3.225,2.972-5.827c0-1.32-0.254-2.442-0.766-3.367
		c-0.508-0.924-1.291-1.728-2.347-2.405c-1.057-0.68-2.369-1.264-3.934-1.754c-1.565-0.49-3.406-0.962-5.52-1.416
		c-2.147-0.453-4.045-0.934-5.686-1.442c-1.644-0.509-3.028-1.15-4.159-1.924c-1.132-0.772-1.981-1.707-2.547-2.801
		c-0.566-1.094-0.851-2.471-0.851-4.131c0-1.811,0.35-3.414,1.048-4.811c0.698-1.395,1.669-2.575,2.914-3.536
		c1.244-0.962,2.735-1.688,4.472-2.179c1.733-0.489,3.658-0.735,5.771-0.735c2.604,0,4.924,0.387,6.96,1.16
		c2.039,0.773,3.888,1.953,5.547,3.537l-1.473,2.263c-2.603-2.904-6.279-4.357-11.034-4.357c-3.924,0-6.78,0.745-8.572,2.236
		c-1.793,1.49-2.688,3.499-2.688,6.026c0,1.284,0.227,2.359,0.679,3.226c0.453,0.868,1.162,1.594,2.123,2.179
		c0.962,0.585,2.188,1.094,3.68,1.527c1.488,0.435,3.254,0.858,5.289,1.273c2.188,0.453,4.151,0.953,5.887,1.5
		c1.733,0.547,3.217,1.236,4.44,2.066c1.228,0.83,2.17,1.849,2.83,3.056c0.659,1.207,0.99,2.697,0.99,4.471
		C401.876,40.305,401.527,41.848,400.829,43.166z M438.234,43.166c-0.697,1.32-1.68,2.425-2.942,3.311
		c-1.265,0.889-2.772,1.558-4.526,2.01c-1.755,0.453-3.707,0.681-5.856,0.681c-6.263,0-11.564-1.999-15.902-6l1.528-2.319
		c1.698,1.772,3.772,3.18,6.225,4.215c2.452,1.039,5.207,1.558,8.264,1.558c3.508,0,6.253-0.642,8.232-1.925
		c1.981-1.281,2.974-3.225,2.974-5.827c0-1.32-0.257-2.442-0.768-3.367c-0.508-0.924-1.292-1.728-2.348-2.405
		c-1.058-0.68-2.369-1.264-3.934-1.754c-1.565-0.49-3.405-0.962-5.518-1.416c-2.15-0.453-4.047-0.934-5.688-1.442
		c-1.641-0.509-3.026-1.15-4.157-1.924c-1.134-0.772-1.981-1.707-2.548-2.801c-0.565-1.094-0.85-2.471-0.85-4.131
		c0-1.811,0.348-3.414,1.047-4.811c0.698-1.395,1.67-2.575,2.915-3.536c1.244-0.962,2.734-1.688,4.472-2.179
		c1.733-0.489,3.658-0.735,5.771-0.735c2.603,0,4.924,0.387,6.96,1.16c2.038,0.773,3.887,1.953,5.546,3.537l-1.471,2.263
		c-2.604-2.904-6.281-4.357-11.035-4.357c-3.924,0-6.781,0.745-8.573,2.236c-1.792,1.49-2.687,3.499-2.687,6.026
		c0,1.284,0.226,2.359,0.678,3.226c0.453,0.868,1.16,1.594,2.122,2.179c0.962,0.585,2.188,1.094,3.679,1.527
		c1.489,0.435,3.253,0.858,5.291,1.273c2.188,0.453,4.149,0.953,5.885,1.5s3.217,1.236,4.441,2.066
		c1.229,0.83,2.17,1.849,2.83,3.056s0.991,2.697,0.991,4.471C439.281,40.305,438.933,41.848,438.234,43.166z"/>
	<path fill="#796F6D" d="M233.775,16.91h-8.207v10.979h8.488c1.096,0,2.037-0.518,2.83-1.556c0.791-1.037,1.188-2.367,1.188-3.989
		c0-1.66-0.453-2.979-1.358-3.961C235.813,17.4,234.83,16.91,233.775,16.91z"/>
	<polygon fill="#796F6D" points="339.118,33.207 356.831,33.207 348.061,12.156 	"/>
</g>
</svg>
