<?xml version="1.0" encoding="utf-8"?>
<!-- Generator: Adobe Illustrator 15.0.0, SVG Export Plug-In . SVG Version: 6.00 Build 0)  -->
<!DOCTYPE svg PUBLIC "-//W3C//DTD SVG 1.1 Tiny//EN" "http://www.w3.org/Graphics/SVG/1.1/DTD/svg11-tiny.dtd">
<svg version="1.1" baseProfile="tiny" id="Шар_1"
	 xmlns="http://www.w3.org/2000/svg" xmlns:xlink="http://www.w3.org/1999/xlink" x="0px" y="0px" width="58px" height="24px"
	 viewBox="0 0 58 24" xml:space="preserve">
<g>
	<path fill="#AFAFAF" d="M34.574,22.073H17.063H12.32c-2.784,0.001-5.369-1.03-7.248-2.725c-1.879-1.697-3.048-4.03-3.051-6.695
		v-0.142C2.019,9.827,3.144,7.164,5.003,5.196c1.863-1.97,4.419-3.234,7.317-3.235h36.555c1.175,0.001,2.16,0.233,2.998,0.635
		c1.256,0.603,2.206,1.597,2.866,2.889c0.658,1.289,1.004,2.871,1.003,4.551c-0.001,2.198-0.745,4.08-1.96,5.402
		c-1.218,1.32-2.889,2.103-4.907,2.106H29.904h-2.334H15.312c-1.658-0.001-3.149-0.648-4.237-1.701
		c-1.087-1.056-1.756-2.502-1.756-4.109c0-1.704,0.48-3.147,1.41-4.147c0.932-0.996,2.348-1.657,4.583-1.665h18.678V3.961H15.312
		c-2.653-0.008-4.739,0.852-6.087,2.314c-1.35,1.458-1.929,3.411-1.928,5.459c0.001,4.292,3.588,7.771,8.015,7.772h12.258h2.334
		h18.971c2.579,0.004,4.849-1.046,6.418-2.766c1.576-1.716,2.473-4.079,2.472-6.705c-0.002-2.582-0.695-5.052-2.179-6.934
		c-0.741-0.938-1.685-1.723-2.816-2.265C51.64,0.295,50.327-0.001,48.875,0H12.32C8.798-0.001,5.699,1.55,3.512,3.872
		C1.322,6.195,0.002,9.298,0,12.512v0.142c-0.002,3.236,1.441,6.103,3.696,8.13c2.255,2.031,5.324,3.249,8.624,3.25h4.743h17.512
		V22.073z"/>
</g>
</svg>
