<?xml version="1.0" encoding="utf-8"?>
<!-- Generator: Adobe Illustrator 15.0.0, SVG Export Plug-In . SVG Version: 6.00 Build 0)  -->
<!DOCTYPE svg PUBLIC "-//W3C//DTD SVG 1.1//EN" "http://www.w3.org/Graphics/SVG/1.1/DTD/svg11.dtd">
<svg version="1.1" id="Шар_1" xmlns="http://www.w3.org/2000/svg" xmlns:xlink="http://www.w3.org/1999/xlink" x="0px" y="0px"
	 width="158px" height="94px" viewBox="0 0 158 94" enable-background="new 0 0 158 94" xml:space="preserve">
<polygon fill="#FFFFFF" points="77.323,92.483 77.323,90.968 3.032,90.968 3.032,51.549 75.807,51.549 75.807,92.483 77.323,92.483 
	77.323,90.968 77.323,92.483 78.839,92.483 78.839,48.517 0,48.517 0,94 78.839,94 78.839,92.483 "/>
<path fill="#FFFFFF" d="M13.897,76.019v-1.138c-1.677-0.003-3.035-1.36-3.038-3.038c0.003-1.679,1.361-3.036,3.038-3.039
	c1.678,0.003,3.036,1.36,3.039,3.039c-0.003,1.676-1.361,3.035-3.039,3.038V76.019v1.137c2.935-0.002,5.313-2.378,5.313-5.313
	c-0.001-2.936-2.379-5.313-5.313-5.313s-5.312,2.379-5.312,5.313c0,2.934,2.377,5.311,5.312,5.313V76.019z"/>
<polygon fill="#FFFFFF" points="156.161,92.483 156.161,90.968 90.968,90.968 90.968,3.032 154.646,3.032 154.646,92.483 
	156.161,92.483 156.161,90.968 156.161,92.483 157.678,92.483 157.678,0 87.936,0 87.936,94 157.678,94 157.678,92.483 "/>
<path fill="#FFFFFF" d="M127.566,80.102h-1.137c-0.003,1.678-1.361,3.035-3.038,3.038c-1.68-0.003-3.037-1.36-3.04-3.038
	c0.003-1.676,1.36-3.035,3.04-3.038c1.676,0.003,3.035,1.362,3.038,3.038H127.566h1.138c-0.002-2.935-2.378-5.311-5.313-5.313
	c-2.935,0.002-5.313,2.378-5.314,5.313c0,2.937,2.38,5.313,5.314,5.313c2.933,0,5.311-2.376,5.313-5.313H127.566z"/>
</svg>
