<?xml version="1.0" encoding="utf-8"?>
<!-- Generator: Adobe Illustrator 15.0.0, SVG Export Plug-In . SVG Version: 6.00 Build 0)  -->
<!DOCTYPE svg PUBLIC "-//W3C//DTD SVG 1.1//EN" "http://www.w3.org/Graphics/SVG/1.1/DTD/svg11.dtd">
<svg version="1.1" id="Шар_1" xmlns="http://www.w3.org/2000/svg" xmlns:xlink="http://www.w3.org/1999/xlink" x="0px" y="0px"
	 width="142px" height="54px" viewBox="0 0 142 54" enable-background="new 0 0 142 54" xml:space="preserve">
<path fill="#FFFFFF" d="M73.503,25.159l0.593,0.819C82.582,19.821,90.962,13.802,98.7,9.343c7.735-4.466,14.836-7.332,20.614-7.319
	c1.149,0,2.246,0.11,3.293,0.339l-0.006-0.001l0.006,0.001c5.953,1.307,10.244,4.661,13.113,9.102
	c2.864,4.44,4.262,9.986,4.262,15.541h2.023v-0.998h-2.023c0,5.555-1.396,11.102-4.262,15.542c-2.869,4.443-7.16,7.798-13.113,9.104
	c-1.047,0.228-2.146,0.339-3.297,0.339c-5.795,0.013-12.942-2.854-20.719-7.32c-7.777-4.459-16.197-10.479-24.682-16.635
	l-0.004-0.003l-3.79-2.698l0.003,0.002c-8.498-6.163-17.025-12.218-25.01-16.753C37.12,3.059,29.684,0.013,23.216,0
	c-1.286,0-2.534,0.124-3.735,0.385l0,0C13,1.796,8.087,5.524,4.85,10.353C1.606,15.183,0.001,21.101,0,27.006h2.024v-0.998H0
	c0.001,5.905,1.606,11.823,4.85,16.655c3.238,4.829,8.15,8.558,14.631,9.968l-0.02-0.004l0.02,0.004
	c1.201,0.264,2.448,0.387,3.733,0.387c6.463-0.014,13.882-3.061,21.856-7.588c7.969-4.535,16.482-10.59,24.979-16.753l-0.594-0.819
	l0.561,0.843l4.064-2.709l0.016-0.012L73.503,25.159l-0.562-0.842l-4.064,2.708l-0.016,0.013
	c-8.484,6.155-16.955,12.174-24.792,16.633c-7.832,4.466-15.043,7.335-20.855,7.322c-1.156,0-2.257-0.111-3.302-0.339l0,0
	c-5.959-1.307-10.389-4.674-13.383-9.12c-2.989-4.445-4.507-9.986-4.505-15.526H0v0.998h2.024
	c-0.001-5.54,1.516-11.079,4.505-15.524c2.994-4.447,7.424-7.813,13.383-9.119l-0.006,0.001l0.006-0.001
	c1.045-0.229,2.146-0.339,3.303-0.339C29.034,2.011,36.262,4.88,44.11,9.347c7.853,4.458,16.337,10.477,24.822,16.631l0.003,0.002
	l3.79,2.7l-0.002-0.004c8.493,6.161,16.951,12.215,24.862,16.752c7.917,4.527,15.274,7.575,21.724,7.588
	c1.281,0,2.528-0.123,3.729-0.386c6.484-1.409,11.279-5.149,14.386-9.983c3.112-4.838,4.581-10.75,4.583-16.639h-2.023v0.998h2.023
	c-0.002-5.89-1.471-11.801-4.583-16.637c-3.106-4.834-7.901-8.574-14.384-9.984l0.006,0.001l-0.008-0.001
	C121.838,0.124,120.593,0,119.313,0c-6.435,0.013-13.75,3.062-21.623,7.589c-7.871,4.536-16.289,10.59-24.781,16.75L73.503,25.159
	l-0.562-0.842L73.503,25.159z"/>
</svg>
